<?xml version="1.0" encoding="UTF-8"?>
<!DOCTYPE svg PUBLIC "-//W3C//DTD SVG 1.1//EN" "http://www.w3.org/Graphics/SVG/1.1/DTD/svg11.dtd">
<svg version="1.1" xmlns="http://www.w3.org/2000/svg" xmlns:xlink="http://www.w3.org/1999/xlink" x="0" y="0" width="95.938" height="96" viewBox="0, 0, 95.938, 96">
  <g id="Layer_1">
    <path d="M55.225,0 C54.963,-0.006 54.68,0.059 54.321,0.181 C39.493,4.515 24.649,8.885 9.856,13.283 C6.641,29.614 3.301,45.785 0.053,62.029 C-0.051,62.496 -0.033,62.612 0.397,62.988 C13.122,74.073 26.053,85.049 38.828,96 C53.752,90.422 68.677,84.859 83.664,79.259 C84.442,78.887 84.591,78.821 84.677,78.065 C88.467,61.876 92.212,45.638 95.938,29.453 C82.927,19.771 69.74,10.222 56.561,0.582 C56.024,0.203 55.659,0.011 55.222,0.002 z" fill="#000000" id="path909"/>
    <path d="M54.872,1.857 C54.61,1.851 54.326,1.916 53.967,2.038 L14.164,13.725 C13.833,13.803 13.852,13.892 14.128,14.105 L49.46,42.312 C50.111,42.851 50.417,42.918 51.324,42.637 L90.944,28.906 C91.853,28.572 91.916,28.49 90.98,27.874 L56.207,2.438 C55.67,2.06 55.305,1.867 54.868,1.859 z" fill="#FFFFFF" id="path903"/>
    <path d="M50.331,5.276 C51.123,5.27 51.96,5.358 52.827,5.548 C56.297,6.308 58.757,8.428 58.309,10.27 C57.861,12.111 54.687,12.984 51.217,12.224 C47.748,11.463 45.287,9.361 45.735,7.52 C46.071,6.139 47.953,5.288 50.331,5.276 z" fill="#000000" id="path901"/>
    <path d="M27.897,12.097 C28.689,12.091 29.544,12.178 30.411,12.369 C33.881,13.129 36.323,15.231 35.875,17.072 C35.427,18.914 32.253,19.805 28.783,19.044 C25.314,18.284 22.871,16.164 23.319,14.322 C23.655,12.942 25.519,12.109 27.897,12.097 z" fill="#000000" id="path899"/>
    <path d="M61.891,13.834 C62.683,13.828 63.538,13.933 64.405,14.123 C67.875,14.884 70.317,16.986 69.869,18.827 C69.421,20.668 66.246,21.542 62.777,20.781 C59.308,20.021 56.865,17.918 57.313,16.077 C57.649,14.696 59.513,13.846 61.891,13.834 z" fill="#000000" id="path897"/>
    <path d="M11.668,16.023 C11.596,16.042 11.572,16.155 11.524,16.385 L2.55,61.27 C2.446,61.737 2.464,61.853 2.894,62.229 L36.979,91.611 C37.772,92.369 37.939,92.359 38.047,91.431 L47.979,45.912 C48.187,45.291 47.973,44.95 47.617,44.663 L12.029,16.244 C11.846,16.089 11.74,16.008 11.668,16.027 z" fill="#FFFFFF" id="path895"/>
    <path d="M39.35,21.143 C40.143,21.137 40.998,21.224 41.865,21.414 C45.334,22.175 47.777,24.277 47.329,26.118 C46.881,27.96 43.706,28.833 40.237,28.072 C36.767,27.312 34.325,25.21 34.773,23.368 C35.109,21.988 36.972,21.155 39.35,21.143 z" fill="#000000" id="path893"/>
    <path d="M73.708,22.645 C74.5,22.639 75.355,22.726 76.223,22.916 C79.692,23.677 82.134,25.779 81.686,27.62 C81.238,29.461 78.064,30.353 74.594,29.592 C71.125,28.831 68.682,26.711 69.13,24.87 C69.467,23.489 71.33,22.657 73.708,22.645 z" fill="#000000" id="path891"/>
    <path d="M13.876,24.291 C14.01,24.278 14.157,24.284 14.293,24.291 C15.925,24.377 17.693,25.908 18.725,28.362 C20.101,31.634 19.642,35.306 17.712,36.557 C15.782,37.808 13.099,36.175 11.724,32.903 C10.348,29.631 10.806,25.958 12.737,24.707 C13.099,24.473 13.476,24.331 13.877,24.291 z" fill="#000000" id="path889"/>
    <path d="M51.165,30.189 C51.958,30.183 52.812,30.27 53.68,30.46 C57.149,31.221 59.592,33.323 59.143,35.164 C58.695,37.005 55.521,37.879 52.051,37.118 C48.582,36.358 46.14,34.256 46.588,32.414 C46.924,31.034 48.787,30.201 51.165,30.189 z" fill="#000000" id="path887"/>
    <path d="M92.795,31.437 C92.719,31.453 92.612,31.48 92.488,31.528 L51.798,45.642 C50.969,45.983 50.994,46.123 50.857,46.746 L40.943,92.121 C40.909,92.789 40.663,93.093 41.449,92.736 L81.542,77.756 C82.32,77.384 82.469,77.319 82.556,76.562 L92.958,31.82 C93.045,31.505 93.024,31.393 92.796,31.44 z" fill="#FFFFFF" id="path885"/>
    <path d="M86.192,38.801 C87.337,38.819 88.236,39.377 88.634,40.447 C89.43,42.588 87.898,46.015 85.197,48.1 C82.496,50.185 79.66,50.133 78.865,47.991 C78.069,45.85 79.601,42.423 82.302,40.338 C83.653,39.296 85.046,38.782 86.192,38.801 z" fill="#000000" id="path883"/>
    <path d="M36.873,42.727 C38.526,42.769 40.33,44.323 41.378,46.815 C42.754,50.088 42.313,53.76 40.383,55.011 C38.453,56.262 35.77,54.611 34.395,51.338 C33.019,48.066 33.477,44.412 35.408,43.161 C35.77,42.926 36.146,42.784 36.548,42.745 C36.656,42.733 36.763,42.724 36.873,42.727 z" fill="#000000" id="path881"/>
    <path d="M22.345,47.973 C23.999,48.016 25.802,49.57 26.85,52.062 C28.226,55.334 27.785,59.007 25.855,60.258 C23.925,61.509 21.243,59.857 19.867,56.585 C18.491,53.313 18.95,49.659 20.88,48.408 C21.242,48.173 21.619,48.031 22.02,47.991 C22.128,47.98 22.235,47.971 22.345,47.973 z" fill="#000000" id="path879"/>
    <path d="M8.211,52.282 C8.345,52.268 8.492,52.275 8.628,52.282 C10.26,52.368 12.01,53.916 13.042,56.37 C14.418,59.643 13.977,63.297 12.047,64.548 C10.117,65.799 7.434,64.166 6.059,60.893 C4.683,57.621 5.142,53.949 7.072,52.698 C7.434,52.463 7.811,52.321 8.212,52.282 z" fill="#000000" id="path877"/>
    <path d="M70.923,57.508 C72.044,57.544 72.938,58.1 73.329,59.154 C74.125,61.295 72.575,64.722 69.874,66.807 C67.173,68.892 64.337,68.839 63.542,66.698 C62.746,64.557 64.296,61.13 66.997,59.045 C68.179,58.133 69.384,57.625 70.435,57.526 C70.604,57.51 70.763,57.503 70.923,57.508 z" fill="#000000" id="path875"/>
    <path d="M30.536,71.152 C30.67,71.138 30.816,71.145 30.952,71.152 C32.585,71.238 34.353,72.768 35.385,75.222 C36.76,78.494 36.302,82.167 34.371,83.418 C32.441,84.669 29.777,83.036 28.401,79.763 C27.025,76.491 27.466,72.819 29.396,71.568 C29.758,71.333 30.135,71.191 30.536,71.152 z" fill="#000000" id="path873"/>
    <path d="M54.351,76.74 C55.497,76.758 56.396,77.297 56.793,78.368 C57.589,80.509 56.057,83.936 53.356,86.021 C50.655,88.105 47.819,88.071 47.024,85.93 C46.228,83.789 47.76,80.362 50.461,78.277 C51.812,77.235 53.205,76.721 54.351,76.739 z" fill="#000000" id="path3924"/>
  </g>
</svg>
